<svg width="37" height="37" viewBox="0 0 37 37" xmlns="http://www.w3.org/2000/svg"><title>bitcoin</title><g fill="none" fill-rule="evenodd"><path d="M36.681 18.346c0 10.078-8.212 18.248-18.34 18.248C8.21 36.594 0 28.424 0 18.346 0 8.27 8.212.1 18.34.1c10.13 0 18.341 8.17 18.341 18.247z" fill="#BEDCFD"/><path d="M24.744 19.239c-.45-.59-1.132-.996-2.042-1.216 1.16-.598 1.669-1.614 1.529-3.047-.047-.52-.189-.97-.426-1.351a2.687 2.687 0 0 0-.963-.921 5.266 5.266 0 0 0-1.32-.532c-.474-.122-1.019-.21-1.634-.265V8.93h-1.797v2.893c-.311 0-.786.008-1.424.024V8.93H14.87v2.976a39.91 39.91 0 0 1-1.132.012l-2.474-.012v1.936h1.295c.592 0 .938.268 1.04.803v3.39c.077 0 .14.003.186.011h-.187v4.747c-.062.401-.288.602-.677.602h-1.295l-.362 2.16h2.334c.148 0 .362.003.642.006.28.004.49.006.63.006v3.011h1.798v-2.975c.327.008.802.012 1.424.012v2.963h1.798v-3.01a13.82 13.82 0 0 0 1.698-.178 6.85 6.85 0 0 0 1.418-.407 3.82 3.82 0 0 0 1.132-.691c.304-.275.554-.626.753-1.051.198-.425.325-.917.38-1.476.1-1.094-.074-1.937-.526-2.527zm-8.042-5.266l.461-.006.63-.012a6.73 6.73 0 0 1 .678.03c.284.023.523.055.717.094.195.04.409.104.642.195.234.09.42.2.56.33.14.13.26.296.356.496.098.201.146.431.146.691 0 .22-.035.421-.105.602-.07.181-.175.333-.315.455s-.284.228-.432.319c-.147.09-.336.163-.566.218-.23.055-.43.099-.6.13a4.866 4.866 0 0 1-.643.065 12.406 12.406 0 0 1-1.127.024l-.402-.006v-3.625zm4.908 8.04c-.074.182-.169.34-.285.473-.117.134-.271.252-.462.354-.19.103-.375.185-.554.248a4.42 4.42 0 0 1-.648.166 8.418 8.418 0 0 1-1.348.148 15.143 15.143 0 0 1-1.18.011l-.431-.006v-3.99c.062 0 .247-.005.554-.013.308-.008.559-.011.753-.011.195 0 .463.011.806.035.342.024.63.059.864.106.233.047.488.12.764.219.276.098.5.218.671.36.172.142.315.322.432.543.117.22.175.472.175.756 0 .22-.037.42-.11.602z" fill="#FFF" fill-rule="nonzero"/></g></svg>