<svg width="37" height="37" viewBox="0 0 37 37" xmlns="http://www.w3.org/2000/svg"><title>Fill 1</title><g fill="none" fill-rule="evenodd"><path d="M36.77 18.346c0 10.078-8.213 18.248-18.341 18.248-10.13 0-18.341-8.17-18.341-18.248C.088 8.27 8.3.1 18.428.1c10.13 0 18.341 8.17 18.341 18.247z" fill="#BEDCFD"/><path d="M29.345 17.764c0-1.624-1.282-2.944-2.858-2.944-.63 0-1.23.212-1.718.596-1.595-1.141-3.684-1.821-5.907-1.993l1.2-2.898 3.488.84c.111 1.111 1.015 1.983 2.122 1.983 1.182 0 2.144-.991 2.144-2.209 0-1.217-.962-2.208-2.144-2.208-.749 0-1.408.4-1.79 1.001l-4.078-.982a.71.71 0 0 0-.822.429l-1.657 4.004c-2.4.085-4.686.782-6.413 1.995a2.745 2.745 0 0 0-1.675-.558c-1.576 0-2.858 1.32-2.858 2.944 0 1.076.57 2.05 1.445 2.548-.011.13-.016.262-.016.396 0 4.059 4.488 7.361 10.004 7.361 5.515 0 10.004-3.302 10.004-7.36 0-.116-.005-.229-.012-.342.932-.489 1.54-1.486 1.54-2.603zm-3.19-7.557a.639.639 0 0 1 0 1.276.639.639 0 0 1 0-1.276zM12.76 20.414c0-.703.572-1.276 1.275-1.276s1.276.573 1.276 1.276a1.277 1.277 0 0 1-2.552 0zm8.616 3.948a5.932 5.932 0 0 1-3.513 1.155 5.932 5.932 0 0 1-3.512-1.155.778.778 0 0 1-.17-1.077.756.756 0 0 1 1.061-.173 4.412 4.412 0 0 0 5.243 0 .753.753 0 0 1 1.061.173.779.779 0 0 1-.17 1.077zm.315-2.672a1.276 1.276 0 1 1 0-2.553 1.276 1.276 0 0 1 0 2.553z" fill="#FFF" fill-rule="nonzero"/></g></svg>