<svg width="37" height="37" viewBox="0 0 37 37" xmlns="http://www.w3.org/2000/svg"><title>golos</title><g fill="none" fill-rule="evenodd"><path d="M36.681 18.346c0 10.078-8.212 18.248-18.34 18.248C8.21 36.594 0 28.424 0 18.346 0 8.27 8.212.1 18.34.1c10.13 0 18.341 8.17 18.341 18.247z" fill="#BEDCFD"/><path d="M19.042 11.483c-4.879 0-8.835 3.04-8.835 6.797 0 1.84.955 3.512 2.503 4.733-.093 1.248-.392 2.776-1.263 3.598 1.734 0 3.5-1.082 4.621-1.932.93.26 1.932.4 2.974.4 4.88 0 8.836-3.048 8.836-6.799 0-3.757-3.957-6.797-8.836-6.797z" fill="#FFF"/></g></svg>