<svg width="37" height="37" viewBox="0 0 37 37" xmlns="http://www.w3.org/2000/svg"><title>google-plus</title><g fill="none" fill-rule="evenodd"><path d="M36.681 18.346c0 10.078-8.212 18.248-18.34 18.248C8.21 36.594 0 28.424 0 18.346 0 8.27 8.212.1 18.34.1c10.13 0 18.341 8.17 18.341 18.247z" fill="#BEDCFD"/><path d="M6.385 19.163c-.065 3.14 2.11 6.135 5.1 7.112 2.815.942 6.278.238 8.152-2.162 1.368-1.682 1.68-3.923 1.53-6.016-2.411-.022-4.824-.014-7.23-.011-.006.854 0 1.706.002 2.56 1.444.04 2.888.022 4.333.05-.364 1.245-1.196 2.4-2.455 2.85-2.435 1.066-5.538-.327-6.304-2.867-.924-2.433.589-5.368 3.087-6.075 1.548-.541 3.145.069 4.47.87a34.51 34.51 0 0 0 1.917-1.969c-1.507-1.253-3.442-2.022-5.43-1.853-3.904.046-7.32 3.63-7.172 7.51zM25.86 15.93c-.005.716-.013 1.433-.017 2.148-.723.006-1.441.01-2.16.014v2.141c.719.004 1.442.006 2.16.015.007.714.007 1.43.015 2.148.715 0 1.433-.004 2.152 0 .003-.719.006-1.434.014-2.152l2.158-.01v-2.142c-.718-.003-1.44-.006-2.158-.014-.005-.715-.011-1.432-.014-2.147-.719-.002-1.434-.002-2.15-.002z" fill="#FFF"/><path d="M6.385 19.163c-.148-3.88 3.268-7.465 7.171-7.511 1.99-.169 3.924.6 5.431 1.853a34.51 34.51 0 0 1-1.917 1.968c-1.327-.8-2.922-1.412-4.472-.869-2.498.707-4.011 3.642-3.085 6.074.764 2.54 3.87 3.934 6.304 2.867 1.26-.448 2.09-1.604 2.455-2.848-1.445-.029-2.89-.011-4.333-.051-.004-.854-.008-1.706-.004-2.56 2.408-.005 4.82-.011 7.233.01.146 2.094-.163 4.335-1.533 6.017-1.872 2.4-5.335 3.104-8.152 2.162-2.989-.977-5.163-3.972-5.098-7.112zM25.86 15.93h2.15c.003.716.009 1.433.014 2.148.718.006 1.44.01 2.158.014v2.141c-.718.004-1.44.006-2.158.011-.008.718-.011 1.433-.014 2.15-.719-.002-1.438 0-2.152 0-.008-.717-.008-1.432-.015-2.146-.718-.009-1.441-.011-2.16-.015v-2.14c.719-.006 1.437-.009 2.16-.015.004-.715.01-1.432.018-2.149z" fill="#FFF"/></g></svg>