<svg width="18" height="17" viewBox="0 0 18 17" xmlns="http://www.w3.org/2000/svg"><title>Fill 1</title><path d="M18 10.422V17h-3.859v-6.137c0-1.541-.557-2.593-1.954-2.593-1.066 0-1.7.708-1.979 1.394-.102.246-.128.586-.128.93V17H6.22s.053-10.394 0-11.47h3.86v1.625c-.008.013-.018.025-.025.038h.025v-.038c.513-.78 1.428-1.895 3.478-1.895C16.097 5.26 18 6.9 18 10.422zM2.183 0c1.321 0 2.133.856 2.158 1.982 0 1.1-.837 1.982-2.183 1.982h-.025C.839 3.964 0 3.083 0 1.982 0 .856.863 0 2.183 0zM.23 17V5.53h3.857V17H.23z" fill="#344CD4" fill-rule="evenodd"/></svg>