<svg width="37" height="37" viewBox="0 0 37 37" xmlns="http://www.w3.org/2000/svg"><title>linkedin</title><g fill="none" fill-rule="evenodd"><path d="M36.681 18.346c0 10.078-8.212 18.248-18.34 18.248C8.21 36.594 0 28.424 0 18.346 0 8.27 8.212.1 18.34.1c10.13 0 18.341 8.17 18.341 18.247z" fill="#BEDCFD"/><path d="M29.298 19.814v7.523h-4.384V20.32c0-1.763-.632-2.967-2.22-2.967-1.21 0-1.93.812-2.248 1.596-.116.28-.145.669-.145 1.063v7.326h-4.385s.059-11.888 0-13.118H20.3v1.86c-.008.014-.02.028-.03.042h.03v-.043c.583-.892 1.622-2.168 3.95-2.168 2.885 0 5.047 1.876 5.047 5.904zM11.33 7.896c-1.5 0-2.48.98-2.48 2.266 0 1.26.95 2.266 2.422 2.266h.027c1.53 0 2.481-1.006 2.481-2.266-.029-1.286-.95-2.266-2.45-2.266zm-2.22 19.441h4.382V14.22H9.11v13.118z" fill="#FFF"/></g></svg>