<svg xmlns="http://www.w3.org/2000/svg" width="106" height="30" viewBox="0 0 106 30"><g fill="none"><path fill="#FFF" d="M37.352 12.688a2.617 2.617 0 0 1 1.603 2.405c0 1.046-.63 1.991-1.603 2.404a4.32 4.32 0 0 1-1.768.328h-1.308v1.94h-2.123v-7.41h3.43a4.32 4.32 0 0 1 1.769.333zm-.91 3.213a1.139 1.139 0 0 0 0-1.607 1.483 1.483 0 0 0-.994-.284h-1.179v2.169h1.179a1.5 1.5 0 0 0 .993-.278zm9.643 2.425h-3.156l-.586 1.439h-2.151l3.29-7.412h2.076l3.29 7.412h-2.175l-.588-1.439zm-.62-1.546l-.96-2.37-.957 2.37h1.918zm9.106.327v2.658h-2.17v-2.688l-2.934-4.724h2.29l1.822 2.942 1.819-2.942h2.107zm9.992-4.419a2.618 2.618 0 0 1 1.599 2.405 2.617 2.617 0 0 1-1.6 2.404 4.3 4.3 0 0 1-1.763.328h-1.322v1.94H59.36v-7.41h3.422a4.3 4.3 0 0 1 1.78.333zm-.909 3.213a1.14 1.14 0 0 0 0-1.606 1.477 1.477 0 0 0-.99-.285h-1.177v2.169h1.176a1.49 1.49 0 0 0 .991-.278zm12.401-3.548v7.412H73.85v-2.89h-3.007v2.89h-2.208v-7.412h2.208v2.785h3.007v-2.785zm3.976 7.512a3.947 3.947 0 0 1-2.121-3.497c0-1.469.817-2.816 2.121-3.497a4.956 4.956 0 0 1 4.41 0 3.944 3.944 0 0 1 2.126 3.497c0 1.469-.82 2.817-2.125 3.497a4.956 4.956 0 0 1-4.41 0zm3.266-1.567a2 2 0 0 0 .755-.777 2.542 2.542 0 0 0 0-2.307 1.992 1.992 0 0 0-.755-.776 2.178 2.178 0 0 0-2.121 0 1.961 1.961 0 0 0-.752.776 2.542 2.542 0 0 0 0 2.307c.173.324.433.593.752.777a2.18 2.18 0 0 0 2.121 0zm13.163-5.945v7.412h-1.817l-3.442-3.95v3.95H89.04v-7.412h1.817l3.442 3.95v-3.95zm9.275 5.793v1.619h-6.183v-7.412h6.04v1.635h-3.883v1.249h3.421v1.566h-3.421v1.356z"/><path fill="#6F98FA" d="M12.38 15.026c-1.6 0-3.22-1.554-3.22-3.123 0-1.569 1.298-2.84 2.897-2.84 1.6 0 2.897 1.271 2.897 2.84h4.833c0-4.186-3.46-7.58-7.73-7.58-4.268 0-7.729 3.394-7.729 7.58s3.783 7.862 8.052 7.862v-4.74z"/><path fill="#FFF" d="M12.367 0C5.537 0 0 5.568 0 12.436v17.211h4.755V12.436c0-4.227 3.408-7.654 7.612-7.654 4.203 0 7.611 3.427 7.611 7.654s-3.408 7.654-7.611 7.654v4.782c6.83 0 12.366-5.568 12.366-12.436S19.197 0 12.367 0z"/></g></svg>