<svg width="37" height="37" viewBox="0 0 37 37" xmlns="http://www.w3.org/2000/svg"><title>medium</title><g fill="none" fill-rule="evenodd"><path d="M36.77 18.346c0 10.078-8.213 18.248-18.341 18.248-10.13 0-18.341-8.17-18.341-18.248C.088 8.27 8.3.1 18.428.1c10.13 0 18.341 8.17 18.341 18.247z" fill="#BEDCFD"/><path d="M27.765 12.682h-1.039c-.27 0-.979.294-.979.544v9.088c0 .25.709.456.98.456h1.038v2.018H21.04V22.77h1.345v-9.416h-.234l-3.238 11.434h-2.507L13.21 13.354h-.242v9.416h1.345v2.018H8.931V22.77h.746c.293 0 .6-.205.6-.456v-9.088c0-.25-.307-.544-.6-.544h-.746v-2.018h6.974l2.277 8.07h.061l2.3-8.07h7.222v2.018z" fill-rule="nonzero" fill="#FFF"/></g></svg>