<svg width="37" height="37" viewBox="0 0 37 37" xmlns="http://www.w3.org/2000/svg"><title>telegram</title><g fill="none" fill-rule="evenodd"><path d="M36.681 18.346c0 10.078-8.212 18.248-18.34 18.248C8.21 36.594 0 28.424 0 18.346 0 8.27 8.212.1 18.34.1c10.13 0 18.341 8.17 18.341 18.247z" fill="#BEDCFD"/><path d="M7.817 18.304l4.41 1.668 1.707 5.563c.11.356.539.488.824.251l2.458-2.03a.726.726 0 0 1 .894-.026l4.434 3.262a.518.518 0 0 0 .814-.318l3.248-15.832a.522.522 0 0 0-.696-.599L7.812 17.318a.53.53 0 0 0 .005.986zm5.842.78l8.618-5.38c.155-.096.314.117.181.242l-7.112 6.7c-.25.236-.412.551-.457.894l-.243 1.82c-.032.242-.368.267-.435.031l-.931-3.318a.885.885 0 0 1 .379-.99z" fill="#FFF" fill-rule="nonzero"/></g></svg>