<svg width="37" height="37" viewBox="0 0 37 37" xmlns="http://www.w3.org/2000/svg"><title>twiteer</title><g fill="none" fill-rule="evenodd"><path d="M36.681 18.346c0 10.078-8.212 18.248-18.34 18.248C8.21 36.594 0 28.424 0 18.346 0 8.27 8.212.1 18.34.1c10.13 0 18.341 8.17 18.341 18.247z" fill="#BEDCFD"/><path d="M29.574 13.213a8.795 8.795 0 0 1-2.517.686 4.39 4.39 0 0 0 1.928-2.412 8.838 8.838 0 0 1-2.784 1.058 4.388 4.388 0 0 0-3.2-1.378c-2.423 0-4.384 1.954-4.384 4.362 0 .341.038.675.113.994a12.466 12.466 0 0 1-9.035-4.558 4.355 4.355 0 0 0 1.355 5.824 4.377 4.377 0 0 1-1.986-.547v.056c0 2.112 1.512 3.875 3.517 4.276a4.388 4.388 0 0 1-1.98.076 4.387 4.387 0 0 0 4.097 3.029 8.82 8.82 0 0 1-5.445 1.866c-.355 0-.705-.02-1.046-.06a12.451 12.451 0 0 0 6.719 1.96c8.063 0 12.474-6.648 12.474-12.411 0-.19-.005-.376-.013-.564a8.874 8.874 0 0 0 2.187-2.257z" fill="#FFF"/></g></svg>