<svg width="37" height="37" viewBox="0 0 37 37" xmlns="http://www.w3.org/2000/svg"><title>vk</title><g fill="none" fill-rule="evenodd"><path d="M36.813 18.346c0 10.078-8.212 18.248-18.34 18.248-10.13 0-18.341-8.17-18.341-18.248C.132 8.27 8.344.1 18.472.1c10.13 0 18.341 8.17 18.341 18.247z" fill="#BEDCFD"/><path d="M29.223 24.61a1.576 1.576 0 0 0-.078-.15c-.398-.718-1.16-1.6-2.284-2.646l-.023-.024-.012-.012-.012-.012h-.012c-.51-.487-.833-.815-.969-.982-.247-.32-.303-.643-.167-.97.095-.248.454-.77 1.076-1.569.327-.423.586-.762.777-1.018 1.379-1.836 1.977-3.01 1.794-3.52l-.072-.12c-.048-.072-.171-.138-.37-.198-.2-.06-.455-.07-.766-.03l-3.443.024a.446.446 0 0 0-.24.006l-.155.036-.06.03-.047.036a.532.532 0 0 0-.132.126.822.822 0 0 0-.12.21 19.568 19.568 0 0 1-1.279 2.694c-.295.495-.566.924-.813 1.287-.247.364-.454.631-.622.803a4.34 4.34 0 0 1-.454.413c-.136.104-.24.148-.31.132a8.75 8.75 0 0 1-.204-.048.796.796 0 0 1-.27-.294 1.315 1.315 0 0 1-.137-.467 5.157 5.157 0 0 1-.042-.485c-.003-.136-.002-.327.006-.575.009-.247.012-.415.012-.503 0-.303.006-.633.018-.988l.03-.844c.008-.208.012-.427.012-.659 0-.231-.014-.413-.042-.545a1.866 1.866 0 0 0-.125-.383.645.645 0 0 0-.245-.287 1.38 1.38 0 0 0-.4-.162c-.423-.096-.961-.148-1.615-.156-1.483-.016-2.435.08-2.858.288a1.611 1.611 0 0 0-.454.359c-.144.176-.164.272-.06.287.478.072.817.244 1.016.515l.072.144c.056.104.112.288.167.551.056.263.092.555.108.874.04.583.04 1.082 0 1.497-.04.415-.078.739-.114.97-.036.232-.09.42-.161.563-.072.144-.12.231-.144.263a.206.206 0 0 1-.06.06.894.894 0 0 1-.322.06c-.112 0-.247-.056-.407-.168a2.87 2.87 0 0 1-.496-.46 6.163 6.163 0 0 1-.58-.821 14.322 14.322 0 0 1-.67-1.245l-.19-.348c-.12-.223-.284-.549-.49-.976-.208-.427-.392-.84-.551-1.24a.79.79 0 0 0-.287-.383l-.06-.036a.818.818 0 0 0-.191-.101 1.268 1.268 0 0 0-.275-.078l-3.276.024c-.335 0-.562.076-.682.227l-.048.072a.388.388 0 0 0-.036.192c0 .088.024.195.072.323a39.549 39.549 0 0 0 1.56 3.258 36.618 36.618 0 0 0 1.465 2.526c.415.639.837 1.242 1.268 1.809.43.566.715.93.854 1.09.14.16.25.279.33.359l.298.287c.192.192.473.421.843.689.371.267.782.53 1.232.79.45.26.974.471 1.572.635.598.163 1.18.23 1.746.197h1.375c.28-.024.49-.111.634-.263l.048-.06a.795.795 0 0 0 .09-.221c.027-.1.041-.21.041-.33a3.952 3.952 0 0 1 .078-.928c.06-.275.127-.483.203-.622a1.53 1.53 0 0 1 .46-.527.78.78 0 0 1 .096-.042c.191-.064.416-.002.676.186.259.187.502.419.73.694.226.276.5.585.818.928.32.344.598.599.837.767l.24.143c.159.096.366.184.621.264.255.08.478.1.67.06l3.06-.048c.303 0 .539-.05.706-.15.168-.1.267-.21.3-.33a.929.929 0 0 0 .005-.406 1.505 1.505 0 0 0-.084-.318z" fill="#FFF" fill-rule="nonzero"/></g></svg>