<?xml version="1.0" encoding="UTF-8"?>
<svg width="37px" height="37px" viewBox="0 0 37 37" version="1.1" xmlns="http://www.w3.org/2000/svg" xmlns:xlink="http://www.w3.org/1999/xlink">
    <!-- Generator: Sketch 50 (54983) - http://www.bohemiancoding.com/sketch -->
    <title>bitcoin</title>
    <desc>Created with Sketch.</desc>
    <defs></defs>
    <g id="Page-1" stroke="none" stroke-width="1" fill="none" fill-rule="evenodd">
        <g id="Payphone-desktop_v3" transform="translate(-1157.000000, -734.000000)">
            <g id="1st-screen" transform="translate(-3.000000, -3.000000)">
                <g id="social" transform="translate(795.000000, 737.000000)">
                    <g id="bitcoin" transform="translate(365.000000, 0.000000)">
                        <path d="M36.6811264,18.3463077 C36.6811264,28.4237253 28.4693731,36.5938132 18.3405632,36.5938132 C8.21175331,36.5938132 0,28.4237253 0,18.3463077 C0,8.26889011 8.21175331,0.0988021978 18.3405632,0.0988021978 C28.4693731,0.0988021978 36.6811264,8.26889011 36.6811264,18.3463077 Z" id="Fill-1" fill="#BEDCFD" fill-rule="evenodd"></path>
                        <path d="M24.7443977,19.2389586 C24.2931735,18.648696 23.6122694,18.2432627 22.7017262,18.0229068 C23.861246,17.4245794 24.3708101,16.4090729 24.2309089,14.976222 C24.1841389,14.4566403 24.0421936,14.0063335 23.8047459,13.6246397 C23.5671347,13.2428632 23.2464904,12.9359448 22.8415865,12.7037605 C22.4370097,12.4712867 21.9969874,12.2943155 21.5225417,12.1723091 C21.0479734,12.0503028 20.5031275,11.9617137 19.8883719,11.9066661 L19.8883719,8.93103448 L18.0909976,8.93103448 L18.0909976,11.8239913 C17.7797564,11.8239913 17.3051063,11.8318493 16.6670883,11.8476068 L16.6670883,8.93103448 L14.8694687,8.93103448 L14.8694687,11.9066661 C14.6126017,11.9145655 14.2352529,11.9185772 13.7372587,11.9185772 L11.2627824,11.9066661 L11.2627824,13.8432172 L12.5583195,13.8432172 C13.149731,13.8432172 13.4960089,14.1109281 13.5971531,14.6461431 L13.5971531,18.0351074 C13.6750758,18.0351074 13.7372587,18.0391605 13.7839878,18.0470186 L13.5971531,18.0470186 L13.5971531,22.7936448 C13.5349703,23.1950251 13.3093377,23.3959013 12.9202146,23.3959013 L11.6247593,23.3959013 L11.2628642,25.55682 L13.5973575,25.55682 C13.7452308,25.55682 13.9590891,25.5588052 14.2393411,25.562362 C14.5194296,25.5663324 14.7294449,25.5683175 14.8695505,25.5683175 L14.8695505,28.5793103 L16.6674562,28.5793103 L16.6674562,25.6037201 C16.9941921,25.6117849 17.4688422,25.6156312 18.0913655,25.6156312 L18.0913655,28.5793103 L19.8887807,28.5793103 L19.8887807,25.5683175 C20.5270031,25.5368854 21.0930672,25.4781569 21.5869731,25.3912636 C22.0811243,25.3043702 22.5539755,25.1687984 23.0051997,24.9836796 C23.456383,24.798809 23.8337319,24.5684031 24.1371645,24.2928755 C24.4407606,24.0175961 24.6914952,23.6671276 24.8902677,23.2419665 C25.0883861,22.8168054 25.2150003,22.3248096 25.2692928,21.7657723 C25.3708867,20.6718509 25.1957036,19.8294694 24.7443977,19.2389586 Z M16.7020432,13.9727507 C16.75654,13.9727507 16.9102187,13.9707655 17.1631201,13.9667951 C17.4161442,13.9627421 17.6261594,13.9588544 17.7934521,13.954884 C17.9607857,13.9509964 18.1864591,13.9608396 18.470595,13.984455 C18.7546083,14.0080705 18.9938548,14.0396267 19.1883346,14.0789169 C19.3828144,14.1182071 19.5969997,14.1831807 19.8302364,14.2737135 C20.063882,14.3641636 20.2505123,14.4744243 20.3904135,14.6042887 C20.5306008,14.7341531 20.6492429,14.8995441 20.7463397,15.1002962 C20.8437227,15.301007 20.8923733,15.5312475 20.8923733,15.7909763 C20.8923733,16.0114149 20.8574184,16.2122084 20.7874678,16.3933568 C20.7176399,16.5743812 20.6123256,16.7259586 20.4724245,16.8479649 C20.3324824,16.9700126 20.1882477,17.0763856 20.0403744,17.1668358 C19.8926646,17.2572859 19.7037857,17.3301588 19.4743102,17.3852065 C19.2448756,17.4403368 19.0445087,17.4836387 18.8734139,17.5150709 C18.7021964,17.5465857 18.4882564,17.5682987 18.2314302,17.5800444 C17.9745632,17.5917901 17.7799608,17.5998136 17.6477456,17.6037012 C17.5154077,17.6075889 17.334542,17.6075889 17.1049029,17.6037012 C16.875223,17.5998136 16.7411681,17.5977457 16.7021658,17.5977457 L16.7021658,13.9727094 L16.7020432,13.9727094 L16.7020432,13.9727507 Z M21.6104399,22.0138795 C21.5363193,22.1950279 21.441144,22.3525609 21.3245051,22.4864783 C21.2076619,22.620065 21.0539015,22.7382664 20.8633464,22.8404622 C20.6728323,22.9429475 20.4878373,23.0254569 20.3090157,23.0884453 C20.1299487,23.1516818 19.9139237,23.2064813 19.6612676,23.2538776 C19.4080391,23.3011499 19.1864131,23.3344018 18.9955719,23.3542124 C18.8050168,23.3739402 18.5775037,23.3896149 18.312828,23.401526 C18.0483568,23.4131063 17.842021,23.4191032 17.6942294,23.4191032 C17.5463561,23.4191032 17.3595623,23.4169526 17.1338889,23.4131063 C16.9080928,23.4094254 16.7642669,23.4074402 16.7019614,23.4074402 L16.7019614,19.416178 C16.7641442,19.416178 16.9489757,19.4123317 17.2564148,19.4043083 C17.5638948,19.3963675 17.8147112,19.3926866 18.0092728,19.3926866 C18.2037934,19.3926866 18.472353,19.4043083 18.8148696,19.4280892 C19.1570592,19.4515392 19.4449972,19.4868177 19.6786428,19.5340486 C19.9120022,19.5813622 20.1666615,19.6540698 20.4431115,19.7525847 C20.7192752,19.8509342 20.9431089,19.9709554 21.1143672,20.1126482 C21.2855847,20.2545892 21.4294515,20.4353654 21.5461312,20.6558453 C21.663097,20.8762012 21.7214369,21.1281547 21.7214369,21.411623 C21.721396,21.6322684 21.6844788,21.8326897 21.6104399,22.0138795 Z" id="Shape" fill="#FFFFFF" fill-rule="nonzero"></path>
                    </g>
                </g>
            </g>
        </g>
    </g>
</svg>