<?xml version="1.0" encoding="UTF-8"?>
<svg width="37px" height="37px" viewBox="0 0 37 37" version="1.1" xmlns="http://www.w3.org/2000/svg" xmlns:xlink="http://www.w3.org/1999/xlink">
    <!-- Generator: Sketch 50 (54983) - http://www.bohemiancoding.com/sketch -->
    <title>facebook</title>
    <desc>Created with Sketch.</desc>
    <defs></defs>
    <g id="Page-1" stroke="none" stroke-width="1" fill="none" fill-rule="evenodd">
        <g id="Payphone-desktop_v3" transform="translate(-792.000000, -734.000000)">
            <g id="1st-screen" transform="translate(-3.000000, -3.000000)">
                <g id="social" transform="translate(795.000000, 737.000000)">
                    <g id="facebook">
                        <path d="M36.6811264,18.3463077 C36.6811264,28.4237253 28.4693731,36.5938132 18.3405632,36.5938132 C8.21175331,36.5938132 0,28.4237253 0,18.3463077 C0,8.26889011 8.21175331,0.0988021978 18.3405632,0.0988021978 C28.4693731,0.0988021978 36.6811264,8.26889011 36.6811264,18.3463077 Z" id="Fill-1" fill="#BEDCFD"></path>
                        <path d="M22.9507348,19.0610989 L19.6781301,19.0610989 L19.6781301,30.9889231 L14.7201829,30.9889231 L14.7201829,19.0610989 L12.3621747,19.0610989 L12.3621747,14.8679011 L14.7201829,14.8679011 L14.7201829,12.1555165 C14.7201829,10.2160659 15.6458134,7.17759341 19.7230834,7.17759341 L23.3945471,7.19345055 L23.3945471,11.2626374 L20.7304474,11.2626374 C20.2927651,11.2626374 19.6781301,11.4801648 19.6781301,12.4047582 L19.6781301,14.8727802 L23.3851478,14.8727802 L22.9507348,19.0610989 Z" id="Fill-2" fill="#FFFFFF"></path>
                    </g>
                </g>
            </g>
        </g>
    </g>
</svg>