<?xml version="1.0" encoding="UTF-8"?>
<svg width="37px" height="37px" viewBox="0 0 37 37" version="1.1" xmlns="http://www.w3.org/2000/svg" xmlns:xlink="http://www.w3.org/1999/xlink">
    <!-- Generator: Sketch 50 (54983) - http://www.bohemiancoding.com/sketch -->
    <title>Fill 1</title>
    <desc>Created with Sketch.</desc>
    <defs></defs>
    <g id="Page-1" stroke="none" stroke-width="1" fill="none" fill-rule="evenodd">
        <g id="Payphone-desktop_v3" transform="translate(-930.000000, -734.000000)">
            <g id="1st-screen" transform="translate(-3.000000, -3.000000)">
                <g id="social" transform="translate(795.000000, 737.000000)">
                    <g id="Fill-1" transform="translate(138.000000, 0.000000)">
                        <path d="M36.7691169,18.3463077 C36.7691169,28.4237253 28.5573636,36.5938132 18.4285537,36.5938132 C8.2997438,36.5938132 0.0879904875,28.4237253 0.0879904875,18.3463077 C0.0879904875,8.26889011 8.2997438,0.0988021978 18.4285537,0.0988021978 C28.5573636,0.0988021978 36.7691169,8.26889011 36.7691169,18.3463077 Z" fill="#BEDCFD" fill-rule="evenodd"></path>
                        <path d="M29.3448276,17.7639646 C29.3448276,16.1401909 28.0629316,14.8196787 26.4866425,14.8196787 C25.8564127,14.8196787 25.2576229,15.0316673 24.7688732,15.4158966 C23.174006,14.2749858 21.0846727,13.5948557 18.8624337,13.422615 L20.0614424,10.5254376 L23.5498573,11.3645591 C23.6613265,12.4760271 24.564513,13.3475357 25.6720597,13.3475357 C26.8539193,13.3475357 27.8156986,12.3567835 27.8156986,11.1393212 C27.8156986,9.92185898 26.8539193,8.93110676 25.6720597,8.93110676 C24.9232152,8.93110676 24.2644036,9.3300575 23.8814068,9.93216398 L19.8042057,8.95024462 C19.4583653,8.86927675 19.1196704,9.05035034 18.9824775,9.37863822 L17.3247302,13.3828671 C14.9252838,13.4682514 12.6387357,14.1645751 10.9123919,15.3776209 C10.4422205,15.018418 9.8591507,14.8196787 9.23749544,14.8196787 C7.66120636,14.8196787 6.37931034,16.1401909 6.37931034,17.7639646 C6.37931034,18.8401012 6.94951827,19.8131877 7.82412291,20.3122441 C7.81269017,20.4417927 7.80840289,20.5742856 7.80840289,20.7082506 C7.80840289,24.7669488 12.2957535,28.0689655 17.8120507,28.0689655 C23.3269189,28.0689655 27.8156986,24.7669488 27.8156986,20.7082506 C27.8156986,20.5934235 27.8114113,20.4800684 27.8042658,20.3667134 C28.7360342,19.877962 29.3448276,18.8813212 29.3448276,17.7639646 Z M26.1551724,10.2068966 C26.5060345,10.2068966 26.7931034,10.4926897 26.7931034,10.8448276 C26.7931034,11.1969655 26.5060345,11.4827586 26.1551724,11.4827586 C25.8043103,11.4827586 25.5172414,11.1969655 25.5172414,10.8448276 C25.5172414,10.4926897 25.8043103,10.2068966 26.1551724,10.2068966 Z M12.7586207,20.4137931 C12.7586207,19.7107931 13.3314828,19.137931 14.0344828,19.137931 C14.7374828,19.137931 15.3103448,19.7107931 15.3103448,20.4137931 C15.3103448,21.118069 14.7374828,21.6896552 14.0344828,21.6896552 C13.3314828,21.6896552 12.7586207,21.118069 12.7586207,20.4137931 Z M21.3750478,24.3616674 C20.3253265,25.1315358 19.093045,25.5172414 17.8622849,25.5172414 C16.6315248,25.5172414 15.3992433,25.1315358 14.3495221,24.3616674 C14.008743,24.1117301 13.9326762,23.6288267 14.1791325,23.2847773 C14.4255888,22.9407279 14.9017667,22.8635868 15.2410245,23.1119812 C16.809521,24.2613839 18.9150488,24.2644695 20.4835454,23.1119812 C20.8228031,22.8635868 21.2974597,22.9376422 21.5454373,23.2847773 C21.7918936,23.6303695 21.7143055,24.1117301 21.3750478,24.3616674 Z M21.6896552,21.6896552 C20.9853793,21.6896552 20.4137931,21.118069 20.4137931,20.4137931 C20.4137931,19.7107931 20.9853793,19.137931 21.6896552,19.137931 C22.393931,19.137931 22.9655172,19.7107931 22.9655172,20.4137931 C22.9655172,21.118069 22.393931,21.6896552 21.6896552,21.6896552 Z" id="Shape" fill="#FFFFFF" fill-rule="nonzero"></path>
                    </g>
                </g>
            </g>
        </g>
    </g>
</svg>