<?xml version="1.0" encoding="UTF-8"?>
<svg width="37px" height="37px" viewBox="0 0 37 37" version="1.1" xmlns="http://www.w3.org/2000/svg" xmlns:xlink="http://www.w3.org/1999/xlink">
    <!-- Generator: Sketch 50 (54983) - http://www.bohemiancoding.com/sketch -->
    <title>golos</title>
    <desc>Created with Sketch.</desc>
    <defs></defs>
    <g id="Page-1" stroke="none" stroke-width="1" fill="none" fill-rule="evenodd">
        <g id="Payphone-desktop_v3" transform="translate(-1205.000000, -734.000000)">
            <g id="1st-screen" transform="translate(-3.000000, -3.000000)">
                <g id="social" transform="translate(795.000000, 737.000000)">
                    <g id="golos" transform="translate(413.000000, 0.000000)">
                        <path d="M36.6811264,18.3463077 C36.6811264,28.4237253 28.4693731,36.5938132 18.3405632,36.5938132 C8.21175331,36.5938132 0,28.4237253 0,18.3463077 C0,8.26889011 8.21175331,0.0988021978 18.3405632,0.0988021978 C28.4693731,0.0988021978 36.6811264,8.26889011 36.6811264,18.3463077 Z" id="Fill-1" fill="#BEDCFD"></path>
                        <path d="M19.0422416,11.4827586 C14.1631734,11.4827586 10.2068966,14.5230418 10.2068966,18.2804852 C10.2068966,20.1192702 11.1619771,21.7915109 12.7101594,23.0134023 C12.6166906,24.2607851 12.3175906,25.7885741 11.4474816,26.611099 C13.1809019,26.611099 14.9466114,25.5285611 16.0682363,24.6788453 C16.9978254,24.9388583 18.00049,25.0782117 19.0422416,25.0782117 C23.9213098,25.0782117 27.8775867,22.0311308 27.8775867,18.2804852 C27.8775867,14.5230418 23.9213098,11.4827586 19.0422416,11.4827586 Z" id="Fill-1" fill="#FFFFFF"></path>
                    </g>
                </g>
            </g>
        </g>
    </g>
</svg>