<?xml version="1.0" encoding="UTF-8"?>
<svg width="37px" height="37px" viewBox="0 0 37 37" version="1.1" xmlns="http://www.w3.org/2000/svg" xmlns:xlink="http://www.w3.org/1999/xlink">
    <!-- Generator: Sketch 50 (54983) - http://www.bohemiancoding.com/sketch -->
    <title>google-plus</title>
    <desc>Created with Sketch.</desc>
    <defs></defs>
    <g id="Page-1" stroke="none" stroke-width="1" fill="none" fill-rule="evenodd">
        <g id="Payphone-desktop_v3" transform="translate(-838.000000, -734.000000)">
            <g id="1st-screen" transform="translate(-3.000000, -3.000000)">
                <g id="social" transform="translate(795.000000, 737.000000)">
                    <g id="google-plus" transform="translate(46.000000, 0.000000)">
                        <g>
                            <path d="M36.6811264,18.3463077 C36.6811264,28.4237253 28.4693731,36.5938132 18.3405632,36.5938132 C8.21175331,36.5938132 0,28.4237253 0,18.3463077 C0,8.26889011 8.21175331,0.0988021978 18.3405632,0.0988021978 C28.4693731,0.0988021978 36.6811264,8.26889011 36.6811264,18.3463077 Z" id="Fill-1" fill="#BEDCFD"></path>
                            <path d="M6.3854208,19.1627473 C6.32003409,22.3028681 8.49414216,25.2982418 11.4843581,26.2748791 C14.3000732,27.216956 17.7627082,26.5131429 19.6368547,24.1134286 C21.0046629,22.4313516 21.3160671,20.1902088 21.167721,18.0970659 C18.7557688,18.0747033 16.3434079,18.0828352 13.9363597,18.0856813 C13.9314557,18.9403407 13.9363597,19.7917473 13.9392203,20.646 C15.3826319,20.6858462 16.8272695,20.6683626 18.2719071,20.6968242 C17.9077849,21.9405934 17.0761477,23.0969451 15.8166362,23.5462308 C13.3822073,24.6119121 10.2787906,23.2189231 9.51254015,20.6793407 C8.58854422,18.2462857 10.1018379,15.3110879 12.6000188,14.6044286 C14.1484578,14.0628462 15.7447108,14.6727363 17.0700177,15.4733187 C17.7402315,14.8491978 18.3691699,14.1803516 18.9870743,13.5054066 C17.4799106,12.2522857 15.5452814,11.4834176 13.5562994,11.6517473 C9.65312157,11.6980989 6.2370747,15.2826264 6.3854208,19.1627473 Z" id="Fill-2" fill="#FFFFFF"></path>
                            <path d="M25.8608521,15.9291099 C25.8547221,16.6455275 25.8465487,17.3631648 25.8432794,18.077956 C25.1203476,18.0844615 24.4019111,18.0889341 23.6834746,18.0921868 L23.6834746,20.2333077 C24.4019111,20.2365604 25.1248429,20.2394066 25.8432794,20.2475385 C25.849818,20.9623297 25.849818,21.6771209 25.8575827,22.3963846 C26.5727498,22.3963846 27.2911863,22.3915055 28.0096228,22.3963846 C28.0128921,21.6771209 28.0161614,20.9623297 28.0239261,20.2442857 C28.7423626,20.241033 29.4640684,20.2365604 30.1820962,20.2333077 L30.1820962,18.0921868 C29.4640684,18.0889341 28.7423626,18.0856813 28.0239261,18.077956 C28.0190221,17.3631648 28.0128921,16.6455275 28.0096228,15.9307363 C27.2911863,15.9291099 26.5760192,15.9291099 25.8608521,15.9291099 Z" id="Fill-3" fill="#FFFFFF"></path>
                            <path d="M6.3854208,19.1627473 C6.2370747,15.2826264 9.65312157,11.6980989 13.5562994,11.6517473 C15.5452814,11.4834176 17.4799106,12.2522857 18.9870743,13.5054066 C18.3691699,14.1803516 17.7402315,14.8491978 17.0700177,15.4733187 C15.7430762,14.6727363 14.1484578,14.0612198 12.5983841,14.6044286 C10.1002032,15.3110879 8.58690955,18.2462857 9.51254015,20.6777143 C10.277156,23.2189231 13.3822073,24.6119121 15.8166362,23.5446044 C17.0761477,23.0969451 17.9061502,21.9405934 18.2719071,20.6968242 C16.8272695,20.6683626 15.3826319,20.6858462 13.9392203,20.646 C13.934725,19.7917473 13.9314557,18.9403407 13.934725,18.0856813 C16.3434079,18.0812088 18.7557688,18.0747033 21.167721,18.0954396 C21.3144324,20.1902088 21.0046629,22.4313516 19.63522,24.1134286 C17.7627082,26.5131429 14.3000732,27.216956 11.4827234,26.2748791 C8.49414216,25.2982418 6.32003409,22.3028681 6.3854208,19.1627473 Z" id="Fill-4" fill="#FFFFFF"></path>
                            <path d="M25.8608521,15.9291099 L28.0096228,15.9291099 C28.0128921,16.6455275 28.0190221,17.3631648 28.0239261,18.077956 C28.7423626,18.0844615 29.4640684,18.0889341 30.1820962,18.0921868 L30.1820962,20.2333077 C29.4640684,20.2365604 28.7423626,20.2394066 28.0239261,20.2442857 C28.0161614,20.9623297 28.0128921,21.6771209 28.0096228,22.3947582 C27.2911863,22.3915055 26.5715238,22.3947582 25.8575827,22.3947582 C25.849818,21.6771209 25.849818,20.9623297 25.8432794,20.2475385 C25.1248429,20.2394066 24.4019111,20.2365604 23.6834746,20.2333077 L23.6834746,18.0921868 C24.4019111,18.0873077 25.1203476,18.0844615 25.8432794,18.077956 C25.8465487,17.3631648 25.8530874,16.6455275 25.8608521,15.9291099 Z" id="Fill-5" fill="#FFFFFF"></path>
                        </g>
                    </g>
                </g>
            </g>
        </g>
    </g>
</svg>