<?xml version="1.0" encoding="UTF-8"?>
<svg width="37px" height="37px" viewBox="0 0 37 37" version="1.1" xmlns="http://www.w3.org/2000/svg" xmlns:xlink="http://www.w3.org/1999/xlink">
    <!-- Generator: Sketch 50 (54983) - http://www.bohemiancoding.com/sketch -->
    <title>linkedin</title>
    <desc>Created with Sketch.</desc>
    <defs></defs>
    <g id="Page-1" stroke="none" stroke-width="1" fill="none" fill-rule="evenodd">
        <g id="Payphone-desktop_v3" transform="translate(-884.000000, -734.000000)">
            <g id="1st-screen" transform="translate(-3.000000, -3.000000)">
                <g id="social" transform="translate(795.000000, 737.000000)">
                    <g id="linkedin" transform="translate(92.000000, 0.000000)">
                        <path d="M36.6811264,18.3463077 C36.6811264,28.4237253 28.4693731,36.5938132 18.3405632,36.5938132 C8.21175331,36.5938132 0,28.4237253 0,18.3463077 C0,8.26889011 8.21175331,0.0988021978 18.3405632,0.0988021978 C28.4693731,0.0988021978 36.6811264,8.26889011 36.6811264,18.3463077 Z" id="Fill-1" fill="#BEDCFD"></path>
                        <path d="M29.2977409,19.8137033 L29.2977409,27.3373077 L24.9143794,27.3373077 L24.9143794,20.3190989 C24.9143794,18.5561099 24.2821717,17.3521868 22.6936833,17.3521868 C21.4836206,17.3521868 20.7639581,18.1637473 20.4460152,18.9484725 C20.3295451,19.2278022 20.3009385,19.6169121 20.3009385,20.0109011 L20.3009385,27.3373077 L15.9155336,27.3373077 C15.9155336,27.3373077 15.9747903,15.4493297 15.9155336,14.2185714 L20.3009385,14.2185714 L20.3009385,16.0783297 C20.2927651,16.0925604 20.2800964,16.1067912 20.2719231,16.121022 L20.3009385,16.121022 L20.3009385,16.0783297 C20.8836975,15.1858571 21.9229375,13.9103736 24.2519303,13.9103736 C27.1363015,13.9103736 29.2977409,15.785989 29.2977409,19.8137033 Z M11.331108,7.89563736 C9.83048302,7.89563736 8.85009106,8.87552747 8.85009106,10.161989 C8.85009106,11.4216154 9.80146767,12.4283407 11.273486,12.4283407 L11.300458,12.4283407 C12.8300983,12.4283407 13.7814749,11.4216154 13.7814749,10.161989 C13.7524596,8.87552747 12.8300983,7.89563736 11.331108,7.89563736 Z M9.11041189,27.3373077 L13.4925474,27.3373077 L13.4925474,14.2185714 L9.11041189,14.2185714 L9.11041189,27.3373077 Z" id="Fill-2" fill="#FFFFFF"></path>
                    </g>
                </g>
            </g>
        </g>
    </g>
</svg>