<?xml version="1.0" encoding="UTF-8"?>
<svg width="18px" height="17px" viewBox="0 0 18 17" version="1.1" xmlns="http://www.w3.org/2000/svg" xmlns:xlink="http://www.w3.org/1999/xlink">
    <!-- Generator: Sketch 50 (54983) - http://www.bohemiancoding.com/sketch -->
    <title>Fill 1</title>
    <desc>Created with Sketch.</desc>
    <defs></defs>
    <g id="Page-1" stroke="none" stroke-width="1" fill="none" fill-rule="evenodd">
        <g id="Payphone-desktop_v3" transform="translate(-1044.000000, -4185.000000)" fill="#344CD4">
            <g id="team" transform="translate(202.000000, 3673.000000)">
                <g id="founders" transform="translate(17.000000, 101.000000)">
                    <path d="M843,421.422232 L843,428 L839.1415,428 L839.1415,421.863287 C839.1415,420.321943 838.584,419.269836 837.1875,419.269836 C836.121,419.269836 835.48725,419.978242 835.208,420.664409 C835.1065,420.909522 835.08,421.250258 835.08,421.593959 L835.08,428 L831.22075,428 C831.22075,428 831.2725,417.605689 831.22075,416.529614 L835.08,416.529614 L835.08,418.154969 C835.07225,418.16757 835.0615,418.180172 835.05475,418.192526 L835.08,418.192526 L835.08,418.154969 C835.59275,417.375154 836.50775,416.260287 838.5575,416.260287 C841.09675,416.260287 843,417.899231 843,421.422232 Z M827.1835,411 C828.504,411 829.3155,411.856165 829.34075,412.981657 C829.34075,414.082935 828.504,414.964056 827.15825,414.964056 L827.13275,414.964056 C825.83875,414.964056 825,414.082935 825,412.981657 C825,411.856165 825.86325,411 827.1835,411 Z M825.2295,428 L825.2295,416.529614 L829.087,416.529614 L829.087,428 L825.2295,428 Z" id="Fill-1"></path>
                </g>
            </g>
        </g>
    </g>
</svg>