<?xml version="1.0" encoding="UTF-8"?>
<svg width="37px" height="37px" viewBox="0 0 37 37" version="1.1" xmlns="http://www.w3.org/2000/svg" xmlns:xlink="http://www.w3.org/1999/xlink">
    <!-- Generator: Sketch 50 (54983) - http://www.bohemiancoding.com/sketch -->
    <title>medium</title>
    <desc>Created with Sketch.</desc>
    <defs></defs>
    <g id="Page-1" stroke="none" stroke-width="1" fill="none" fill-rule="evenodd">
        <g id="Payphone-desktop_v3" transform="translate(-975.000000, -734.000000)">
            <g id="1st-screen" transform="translate(-3.000000, -3.000000)">
                <g id="social" transform="translate(795.000000, 737.000000)">
                    <g id="medium" transform="translate(183.000000, 0.000000)">
                        <path d="M36.7691169,18.3463077 C36.7691169,28.4237253 28.5573636,36.5938132 18.4285537,36.5938132 C8.2997438,36.5938132 0.0879904875,28.4237253 0.0879904875,18.3463077 C0.0879904875,8.26889011 8.2997438,0.0988021978 18.4285537,0.0988021978 C28.5573636,0.0988021978 36.7691169,8.26889011 36.7691169,18.3463077 Z" id="Fill-1" fill="#BEDCFD"></path>
                        <g id="005-medium-size" stroke-width="1" transform="translate(8.931034, 10.206897)" fill="#FFFFFF">
                            <path d="M18.834427,2.47502523 L17.7951587,2.47502523 C17.5245496,2.47502523 16.8164582,2.76898959 16.8164582,3.01924076 L16.8164582,12.1070289 C16.8164582,12.3579029 17.5245496,12.5635845 17.7951587,12.5635845 L18.834427,12.5635845 L18.834427,14.5812808 L12.1078126,14.5812808 L12.1078126,12.5635845 L13.4534624,12.5635845 L13.4534624,3.14726628 L13.2192874,3.14726628 L9.98124204,14.5812419 L7.47421499,14.5812419 L4.27805329,3.14726628 L4.03597645,3.14726628 L4.03597645,12.5635456 L5.38104243,12.5635456 L5.38104243,14.5812419 L0,14.5812808 L0,12.5635456 L0.746316019,12.5635456 C1.03930724,12.5635456 1.34510491,12.3579029 1.34510491,12.10699 L1.34510491,3.01924076 C1.34510491,2.76895066 1.03934617,2.47502523 0.746316019,2.47502523 L0,2.47502523 L0,0.457095398 L6.97367373,0.457095398 L9.25065187,8.52795838 L9.31192039,8.52795838 L11.6113585,0.457095398 L18.834427,0.457095398 L18.834427,2.47502523 Z" id="Shape" fill-rule="nonzero"></path>
                        </g>
                    </g>
                </g>
            </g>
        </g>
    </g>
</svg>