<?xml version="1.0" encoding="UTF-8"?>
<svg width="37px" height="37px" viewBox="0 0 37 37" version="1.1" xmlns="http://www.w3.org/2000/svg" xmlns:xlink="http://www.w3.org/1999/xlink">
    <!-- Generator: Sketch 50 (54983) - http://www.bohemiancoding.com/sketch -->
    <title>telegram</title>
    <desc>Created with Sketch.</desc>
    <defs></defs>
    <g id="Page-1" stroke="none" stroke-width="1" fill="none" fill-rule="evenodd">
        <g id="Payphone-desktop_v3" transform="translate(-1066.000000, -734.000000)">
            <g id="1st-screen" transform="translate(-3.000000, -3.000000)">
                <g id="social" transform="translate(795.000000, 737.000000)">
                    <g id="telegram" transform="translate(274.000000, 0.000000)">
                        <path d="M36.6811264,18.3463077 C36.6811264,28.4237253 28.4693731,36.5938132 18.3405632,36.5938132 C8.21175331,36.5938132 0,28.4237253 0,18.3463077 C0,8.26889011 8.21175331,0.0988021978 18.3405632,0.0988021978 C28.4693731,0.0988021978 36.6811264,8.26889011 36.6811264,18.3463077 Z" id="Fill-1" fill="#BEDCFD" fill-rule="evenodd"></path>
                        <path d="M7.81722419,18.3038687 L12.226992,19.9718217 L13.9338425,25.5347036 C14.0430565,25.8909861 14.4729588,26.0226768 14.7583057,25.7862542 L17.2163848,23.7554891 C17.4740455,23.5427281 17.8410477,23.5321256 18.1103187,23.7302112 L22.5438176,26.992223 C22.849068,27.2170734 23.281522,27.0475629 23.3580738,26.6737604 L26.6058488,10.8417184 C26.6894179,10.4333931 26.2935173,10.0927558 25.9098651,10.2431301 L7.81205694,17.3184188 C7.36544084,17.492972 7.36933222,18.1337763 7.81722419,18.3038687 Z M13.6587663,19.0839276 L22.2770983,13.7046498 C22.4319882,13.6082577 22.5913435,13.8205015 22.4583347,13.9455333 L15.3457134,20.6457911 C15.0957079,20.8816319 14.9344387,21.19725 14.8887628,21.5398268 L14.6464762,23.3594472 C14.6143883,23.6023994 14.277624,23.6265136 14.2114705,23.391384 L13.2796434,20.0732565 C13.1729174,19.6947993 13.3284452,19.2905469 13.6587663,19.0839276 Z" id="XMLID_497_" fill="#FFFFFF" fill-rule="nonzero"></path>
                    </g>
                </g>
            </g>
        </g>
    </g>
</svg>