<?xml version="1.0" encoding="UTF-8"?>
<svg width="37px" height="37px" viewBox="0 0 37 37" version="1.1" xmlns="http://www.w3.org/2000/svg" xmlns:xlink="http://www.w3.org/1999/xlink">
    <!-- Generator: Sketch 50 (54983) - http://www.bohemiancoding.com/sketch -->
    <title>twiteer</title>
    <desc>Created with Sketch.</desc>
    <defs></defs>
    <g id="Page-1" stroke="none" stroke-width="1" fill="none" fill-rule="evenodd">
        <g id="Payphone-desktop_v3" transform="translate(-1113.000000, -734.000000)">
            <g id="1st-screen" transform="translate(-3.000000, -3.000000)">
                <g id="social" transform="translate(795.000000, 737.000000)">
                    <g id="twiteer" transform="translate(321.000000, 0.000000)">
                        <path d="M36.6811264,18.3463077 C36.6811264,28.4237253 28.4693731,36.5938132 18.3405632,36.5938132 C8.21175331,36.5938132 0,28.4237253 0,18.3463077 C0,8.26889011 8.21175331,0.0988021978 18.3405632,0.0988021978 C28.4693731,0.0988021978 36.6811264,8.26889011 36.6811264,18.3463077 Z" id="Fill-1" fill="#BEDCFD"></path>
                        <path d="M29.5739998,13.2130659 C28.7885419,13.5594835 27.9426014,13.7944945 27.0566115,13.8993956 C27.9618087,13.359033 28.6561339,12.5047802 28.9851107,11.4866703 C28.1375355,11.9855604 27.1988276,12.3490549 26.2008629,12.5446264 C25.4011018,11.6964725 24.2613297,11.1674945 23.0001835,11.1674945 C20.5784233,11.1674945 18.616822,13.1211758 18.616822,15.5286154 C18.616822,15.8701538 18.6548281,16.203967 18.7300228,16.5231429 C15.0871658,16.3405824 11.856245,14.6044286 9.6948056,11.9648242 C9.31638002,12.6096813 9.10101255,13.359033 9.10101255,14.157989 C9.10101255,15.6717363 9.87502772,17.0073956 11.0499451,17.7888681 C10.3315087,17.7665055 9.65639091,17.5697143 9.06423253,17.2424066 C9.06423253,17.2615165 9.06423253,17.279 9.06423253,17.2981099 C9.06423253,19.4103626 10.5758915,21.1733516 12.5808115,21.5738462 C12.2138286,21.6738681 11.8260036,21.7279451 11.4267361,21.7279451 C11.1443472,21.7279451 10.869723,21.7007033 10.6012289,21.6498791 C11.1602852,23.3827802 12.7790149,24.6436264 14.6977062,24.6785934 C13.1970812,25.8491758 11.3069966,26.5448571 9.25262798,26.5448571 C8.89790509,26.5448571 8.54849486,26.5257473 8.20684931,26.4846813 C10.1463826,27.7219451 12.450038,28.4444615 14.9257423,28.4444615 C22.9891495,28.4444615 27.3998917,21.7974725 27.3998917,16.034011 C27.3998917,15.8449451 27.3949877,15.6575055 27.387223,15.4700659 C28.2441976,14.8552967 28.9867454,14.0868352 29.5739998,13.2130659 Z" id="Fill-2" fill="#FFFFFF"></path>
                    </g>
                </g>
            </g>
        </g>
    </g>
</svg>