<?xml version="1.0" encoding="UTF-8"?>
<svg width="37px" height="37px" viewBox="0 0 37 37" version="1.1" xmlns="http://www.w3.org/2000/svg" xmlns:xlink="http://www.w3.org/1999/xlink">
    <!-- Generator: Sketch 50 (54983) - http://www.bohemiancoding.com/sketch -->
    <title>vk</title>
    <desc>Created with Sketch.</desc>
    <defs></defs>
    <g id="Page-1" stroke="none" stroke-width="1" fill="none" fill-rule="evenodd">
        <g id="Payphone-desktop_v3" transform="translate(-1020.000000, -734.000000)">
            <g id="1st-screen" transform="translate(-3.000000, -3.000000)">
                <g id="social" transform="translate(795.000000, 737.000000)">
                    <g id="vk" transform="translate(228.000000, 0.000000)">
                        <path d="M36.8131121,18.3463077 C36.8131121,28.4237253 28.6013588,36.5938132 18.4725489,36.5938132 C8.34373904,36.5938132 0.131985731,28.4237253 0.131985731,18.3463077 C0.131985731,8.26889011 8.34373904,0.0988021978 18.4725489,0.0988021978 C28.6013588,0.0988021978 36.8131121,8.26889011 36.8131121,18.3463077 Z" id="Fill-1" fill="#BEDCFD" fill-rule="evenodd"></path>
                        <path d="M29.2230307,24.610268 C29.1952221,24.5502442 29.1692981,24.500455 29.1452168,24.460565 C28.7467665,23.7418311 27.9853384,22.8596362 26.8613934,21.8137285 L26.8376472,21.7897777 L26.8257532,21.778033 L26.8137335,21.7659947 L26.801672,21.7659947 C26.2915684,21.278967 25.9685446,20.9514996 25.8332709,20.7838439 C25.5857575,20.4644719 25.5303079,20.141199 25.6655816,19.8136476 C25.7611528,19.56617 26.1201518,19.0435307 26.7417411,18.2450168 C27.0687016,17.82183 27.3276482,17.4826598 27.5188743,17.2271286 C28.8980386,15.3907605 29.4959654,14.2172969 29.3125291,13.7062766 L29.2412905,13.5868581 C29.1934212,13.5149637 29.069874,13.4491934 28.8708163,13.3892115 C28.6712979,13.3293555 28.416288,13.3194564 28.1053259,13.3593464 L24.6617497,13.3831714 C24.605965,13.3633732 24.5263084,13.3652188 24.4225287,13.3892115 C24.3188747,13.4132043 24.2670267,13.4252426 24.2670267,13.4252426 L24.2070958,13.4552335 L24.1595196,13.4912646 C24.1196495,13.5150896 24.0758007,13.556993 24.0279313,13.616891 C23.9803133,13.6765792 23.940485,13.746628 23.9086559,13.82645 C23.5337423,14.7924937 23.1074833,15.6906699 22.6290832,16.5209364 C22.3341194,17.0160176 22.0632368,17.4450767 21.8158491,17.8083655 C21.5687965,18.1715285 21.3615302,18.439098 21.1942598,18.6106126 C21.0267381,18.782295 20.8755498,18.9198338 20.7397734,19.0237325 C20.6042065,19.1276731 20.50072,19.1715899 20.4290626,19.1555249 C20.3572376,19.1394598 20.2896007,19.1235205 20.2255656,19.1075813 C20.114038,19.0356869 20.0243301,18.9379123 19.9566932,18.8141735 C19.8887632,18.6904346 19.8430297,18.5346915 19.819116,18.3470699 C19.7953279,18.1593224 19.7812561,17.9978328 19.7772356,17.8620556 C19.7735082,17.7264462 19.7752253,17.5346301 19.7833083,17.2871524 C19.7916006,17.0395489 19.7953279,16.8720191 19.7953279,16.7841855 C19.7953279,16.4807528 19.8012331,16.1514397 19.8130852,15.7961625 C19.8251468,15.4408852 19.8349049,15.1593899 19.8430716,14.952012 C19.8511964,14.7444244 19.8549657,14.5247984 19.8549657,14.29326 C19.8549657,14.0617216 19.8408938,13.8801401 19.8130852,13.7483478 C19.7856117,13.6167232 19.7434381,13.4889576 19.6878628,13.365093 C19.6319524,13.2413541 19.550118,13.1456348 19.4427366,13.0776833 C19.3351458,13.0098157 19.2013797,12.9559579 19.0421922,12.915942 C18.6196606,12.8201807 18.0816228,12.7683782 17.4278275,12.7603247 C15.9452185,12.7443854 14.9925644,12.8402725 14.5700747,13.0478601 C14.4026786,13.1355679 14.2511971,13.2554058 14.1157558,13.4069964 C13.9722316,13.5827055 13.9522128,13.6785926 14.0558249,13.6943641 C14.5341832,13.7661326 14.8728283,13.937815 15.0721372,14.2092434 L15.1439622,14.3530741 C15.1998307,14.4568469 15.2556154,14.6405676 15.311442,14.9039845 C15.3671848,15.1674014 15.4031601,15.4587959 15.4189909,15.7780001 C15.4587773,16.3609149 15.4587773,16.8598969 15.4189909,17.2749883 C15.3790789,17.6902474 15.3413865,18.0135203 15.3054112,18.2450587 C15.2694359,18.4765972 15.2156615,18.6642188 15.1439622,18.8078817 C15.0721372,18.9515865 15.0243517,19.0394201 15.0003961,19.0712986 C14.9764823,19.103177 14.9565473,19.1232689 14.9407165,19.1311546 C14.8371043,19.1709188 14.729346,19.1911784 14.6178184,19.1911784 C14.5061233,19.1911784 14.370682,19.1352233 14.2112851,19.0233969 C14.0519301,18.9115706 13.8865443,18.7579667 13.7151277,18.5623335 C13.5437111,18.3666584 13.350391,18.0932165 13.1350838,17.741966 C12.919944,17.3907155 12.6967213,16.9755823 12.4655414,16.4965662 L12.2742735,16.1491747 C12.1547049,15.9256897 11.9913712,15.6002776 11.784105,15.1732318 C11.5767131,14.7460183 11.3934025,14.3327725 11.2340475,13.9335785 C11.1703473,13.7659229 11.0746506,13.6382831 10.9471247,13.5504495 L10.8872775,13.5144185 C10.8474911,13.48254 10.7836235,13.4486901 10.6960096,13.412617 C10.6082701,13.376586 10.5167195,13.3507476 10.4209809,13.3348503 L7.14471701,13.3586753 C6.80992489,13.3586753 6.58276546,13.4346384 6.46315496,13.5863548 L6.41528563,13.6581233 C6.39137191,13.6980972 6.37931034,13.7619381 6.37931034,13.8498136 C6.37931034,13.9376472 6.40322407,14.0454468 6.4510934,14.1730865 C6.92936786,15.2989001 7.44948087,16.3846559 8.01143243,17.4305217 C8.57338399,18.4763874 9.06170976,19.3188601 9.47611658,19.9571847 C9.89060716,20.5959707 10.3130969,21.1988514 10.7435858,21.7655333 C11.1740747,22.3324249 11.4590291,22.6957137 11.5984491,22.8553158 C11.7380365,23.0152116 11.8476795,23.1347559 11.9273779,23.2145779 L12.2263623,23.5019456 C12.4176721,23.693594 12.698606,23.923119 13.0692896,24.1905207 C13.440057,24.4580902 13.8505271,24.7215071 14.3009092,24.9811909 C14.7513751,25.2404552 15.2754248,25.4520276 15.8733517,25.6156565 C16.4711948,25.7794531 17.0530814,25.8451815 17.6190954,25.8134708 L18.9941973,25.8134708 C19.273079,25.7893522 19.4843658,25.7015186 19.6279738,25.5499281 L19.6755499,25.4899043 C19.7075466,25.4422543 19.7374911,25.3682208 19.7651322,25.2686005 C19.7931083,25.1688125 19.8070126,25.0588737 19.8070126,24.9392874 C19.7988459,24.5960485 19.8249374,24.2867014 19.8845751,24.0112882 C19.944171,23.7359588 20.012101,23.5283712 20.0880721,23.3885673 C20.1640013,23.2488892 20.2496887,23.1310227 20.3450504,23.0354712 C20.4406216,22.9397099 20.5087191,22.8816995 20.5486731,22.8617335 C20.5883757,22.8416416 20.6200792,22.8280094 20.6439929,22.8198301 C20.8353027,22.7559892 21.0604519,22.8178167 21.3197755,23.0056061 C21.5788897,23.1932277 21.8219218,23.424892 22.0492487,23.7002213 C22.27645,23.9758024 22.5494266,24.2849817 22.8682205,24.6282206 C23.1872237,24.9715854 23.4661473,25.2268229 23.7052008,25.3947302 L23.9442542,25.538435 C24.1039024,25.6343222 24.3111687,25.7221557 24.5663042,25.8019778 C24.8209791,25.8817579 25.044118,25.9017239 25.2357209,25.8618338 L28.2966357,25.8140161 C28.5993893,25.8140161 28.8349667,25.7638075 29.0020696,25.6641873 C29.1695075,25.5643992 29.2689735,25.4544604 29.3010539,25.3348742 C29.3330506,25.2151621 29.3347677,25.079343 29.3071266,24.9275008 C29.2787735,24.7760361 29.2508393,24.670124 29.2230307,24.610268 Z" id="Shape" fill="#FFFFFF" fill-rule="nonzero"></path>
                    </g>
                </g>
            </g>
        </g>
    </g>
</svg>